<mxfile host="app.diagrams.net" modified="2024-04-25T15:51:54.227Z" agent="Mozilla/5.0 (Windows NT 10.0; Win64; x64) AppleWebKit/537.36 (KHTML, like Gecko) Chrome/124.0.0.0 Safari/537.36" etag="xtBkxt9DxhEQDsFSSbQb" version="24.2.5" type="github" pages="3">
  <diagram name="Login " id="z78F4MqMe-D0VHbAnxpD">
    <mxGraphModel dx="1877" dy="522" grid="1" gridSize="10" guides="1" tooltips="1" connect="1" arrows="1" fold="1" page="1" pageScale="1" pageWidth="827" pageHeight="1169" math="0" shadow="0">
      <root>
        <mxCell id="0" />
        <mxCell id="1" parent="0" />
        <mxCell id="91C4lWl_H25pQQBfCAl7-1" value="" style="rounded=0;whiteSpace=wrap;html=1;" vertex="1" parent="1">
          <mxGeometry x="-160" y="520" width="560" height="560" as="geometry" />
        </mxCell>
        <mxCell id="faLAyq8RchsOXLLk2-nm-1" value="" style="ellipse;html=1;shape=startState;fillColor=#000000;strokeColor=#ff0000;" vertex="1" parent="1">
          <mxGeometry y="650" width="30" height="30" as="geometry" />
        </mxCell>
        <mxCell id="faLAyq8RchsOXLLk2-nm-3" value="Display the login screen" style="rounded=1;whiteSpace=wrap;html=1;" vertex="1" parent="1">
          <mxGeometry x="210" y="645" width="120" height="40" as="geometry" />
        </mxCell>
        <mxCell id="faLAyq8RchsOXLLk2-nm-4" value="Select login role" style="rounded=1;whiteSpace=wrap;html=1;" vertex="1" parent="1">
          <mxGeometry x="-100" y="730" width="120" height="40" as="geometry" />
        </mxCell>
        <mxCell id="faLAyq8RchsOXLLk2-nm-5" value="" style="endArrow=classic;html=1;rounded=0;exitX=0.5;exitY=1;exitDx=0;exitDy=0;entryX=1;entryY=0.5;entryDx=0;entryDy=0;" edge="1" parent="1" source="faLAyq8RchsOXLLk2-nm-3" target="faLAyq8RchsOXLLk2-nm-4">
          <mxGeometry width="50" height="50" relative="1" as="geometry">
            <mxPoint x="90" y="230" as="sourcePoint" />
            <mxPoint x="140" y="180" as="targetPoint" />
            <Array as="points">
              <mxPoint x="270" y="750" />
            </Array>
          </mxGeometry>
        </mxCell>
        <mxCell id="faLAyq8RchsOXLLk2-nm-6" value="Enter login information" style="rounded=1;whiteSpace=wrap;html=1;" vertex="1" parent="1">
          <mxGeometry x="-100" y="810" width="120" height="40" as="geometry" />
        </mxCell>
        <mxCell id="faLAyq8RchsOXLLk2-nm-7" value="" style="endArrow=classic;html=1;rounded=0;exitX=0.5;exitY=1;exitDx=0;exitDy=0;" edge="1" parent="1" source="faLAyq8RchsOXLLk2-nm-4" target="faLAyq8RchsOXLLk2-nm-6">
          <mxGeometry width="50" height="50" relative="1" as="geometry">
            <mxPoint x="60" y="280" as="sourcePoint" />
            <mxPoint x="110" y="230" as="targetPoint" />
          </mxGeometry>
        </mxCell>
        <mxCell id="faLAyq8RchsOXLLk2-nm-8" value="" style="rhombus;whiteSpace=wrap;html=1;" vertex="1" parent="1">
          <mxGeometry x="245" y="890" width="30" height="30" as="geometry" />
        </mxCell>
        <mxCell id="faLAyq8RchsOXLLk2-nm-9" value="" style="endArrow=classic;html=1;rounded=0;exitX=1;exitY=0.5;exitDx=0;exitDy=0;entryX=0;entryY=0.5;entryDx=0;entryDy=0;" edge="1" parent="1" source="faLAyq8RchsOXLLk2-nm-6" target="faLAyq8RchsOXLLk2-nm-14">
          <mxGeometry width="50" height="50" relative="1" as="geometry">
            <mxPoint x="120" y="370" as="sourcePoint" />
            <mxPoint x="290" y="320" as="targetPoint" />
          </mxGeometry>
        </mxCell>
        <mxCell id="faLAyq8RchsOXLLk2-nm-10" value="Display error message" style="rounded=1;whiteSpace=wrap;html=1;" vertex="1" parent="1">
          <mxGeometry x="120" y="970" width="120" height="40" as="geometry" />
        </mxCell>
        <mxCell id="faLAyq8RchsOXLLk2-nm-14" value="Check login information" style="rounded=1;whiteSpace=wrap;html=1;" vertex="1" parent="1">
          <mxGeometry x="200" y="810" width="120" height="40" as="geometry" />
        </mxCell>
        <mxCell id="faLAyq8RchsOXLLk2-nm-17" value="false" style="text;html=1;align=center;verticalAlign=middle;resizable=0;points=[];autosize=1;strokeColor=none;fillColor=none;" vertex="1" parent="1">
          <mxGeometry x="130" y="920" width="50" height="30" as="geometry" />
        </mxCell>
        <mxCell id="faLAyq8RchsOXLLk2-nm-20" value="Access the system&#39;s main page" style="rounded=1;whiteSpace=wrap;html=1;" vertex="1" parent="1">
          <mxGeometry x="280" y="970" width="120" height="40" as="geometry" />
        </mxCell>
        <mxCell id="faLAyq8RchsOXLLk2-nm-22" value="true" style="text;html=1;align=center;verticalAlign=middle;resizable=0;points=[];autosize=1;strokeColor=none;fillColor=none;" vertex="1" parent="1">
          <mxGeometry x="340" y="920" width="40" height="30" as="geometry" />
        </mxCell>
        <mxCell id="faLAyq8RchsOXLLk2-nm-23" value="" style="ellipse;html=1;shape=endState;fillColor=#000000;strokeColor=#ff0000;" vertex="1" parent="1">
          <mxGeometry x="-160" y="1025" width="30" height="30" as="geometry" />
        </mxCell>
        <mxCell id="O1OmzhKB3jQJOmvY48ri-1" value="&lt;font style=&quot;font-size: 16px;&quot;&gt;[password field is required]&lt;/font&gt;" style="text;html=1;align=center;verticalAlign=middle;whiteSpace=wrap;rounded=0;" vertex="1" parent="1">
          <mxGeometry x="64" y="1130" width="200" height="30" as="geometry" />
        </mxCell>
        <mxCell id="O1OmzhKB3jQJOmvY48ri-2" value="&lt;font style=&quot;font-size: 16px;&quot;&gt;[email field is required]&lt;/font&gt;" style="text;html=1;align=center;verticalAlign=middle;whiteSpace=wrap;rounded=0;" vertex="1" parent="1">
          <mxGeometry x="54" y="1100" width="190" height="30" as="geometry" />
        </mxCell>
        <mxCell id="O1OmzhKB3jQJOmvY48ri-3" value="&lt;font style=&quot;font-size: 16px;&quot;&gt;[The email field must be a valid email address]&lt;/font&gt;" style="text;html=1;align=center;verticalAlign=middle;whiteSpace=wrap;rounded=0;" vertex="1" parent="1">
          <mxGeometry x="54" y="1160" width="360" height="30" as="geometry" />
        </mxCell>
        <mxCell id="O1OmzhKB3jQJOmvY48ri-4" value="&lt;font style=&quot;font-size: 16px;&quot;&gt;[The password field must be 6 characters]&lt;/font&gt;" style="text;html=1;align=center;verticalAlign=middle;whiteSpace=wrap;rounded=0;" vertex="1" parent="1">
          <mxGeometry x="29" y="1190" width="380" height="30" as="geometry" />
        </mxCell>
        <mxCell id="91C4lWl_H25pQQBfCAl7-4" value="" style="endArrow=none;html=1;rounded=0;exitX=0.5;exitY=0;exitDx=0;exitDy=0;entryX=0.5;entryY=1;entryDx=0;entryDy=0;" edge="1" parent="1" source="91C4lWl_H25pQQBfCAl7-1" target="91C4lWl_H25pQQBfCAl7-1">
          <mxGeometry width="50" height="50" relative="1" as="geometry">
            <mxPoint x="-70" y="500" as="sourcePoint" />
            <mxPoint x="-20" y="450" as="targetPoint" />
          </mxGeometry>
        </mxCell>
        <mxCell id="91C4lWl_H25pQQBfCAl7-5" value="" style="endArrow=none;html=1;rounded=0;exitX=0.001;exitY=0.115;exitDx=0;exitDy=0;exitPerimeter=0;entryX=1.01;entryY=0.115;entryDx=0;entryDy=0;entryPerimeter=0;" edge="1" parent="1" source="91C4lWl_H25pQQBfCAl7-1" target="91C4lWl_H25pQQBfCAl7-1">
          <mxGeometry width="50" height="50" relative="1" as="geometry">
            <mxPoint x="-240" y="620" as="sourcePoint" />
            <mxPoint x="280" y="584" as="targetPoint" />
          </mxGeometry>
        </mxCell>
        <mxCell id="91C4lWl_H25pQQBfCAl7-6" value="&lt;font style=&quot;font-size: 15px;&quot;&gt;User&lt;/font&gt;" style="text;html=1;align=center;verticalAlign=middle;whiteSpace=wrap;rounded=0;" vertex="1" parent="1">
          <mxGeometry x="-70" y="555" width="60" height="30" as="geometry" />
        </mxCell>
        <mxCell id="91C4lWl_H25pQQBfCAl7-7" value="&lt;span style=&quot;font-size: 15px;&quot;&gt;System&lt;/span&gt;" style="text;html=1;align=center;verticalAlign=middle;whiteSpace=wrap;rounded=0;" vertex="1" parent="1">
          <mxGeometry x="230" y="555" width="60" height="30" as="geometry" />
        </mxCell>
        <mxCell id="91C4lWl_H25pQQBfCAl7-10" value="" style="endArrow=classic;html=1;rounded=0;exitX=1;exitY=0.5;exitDx=0;exitDy=0;entryX=0;entryY=0.5;entryDx=0;entryDy=0;" edge="1" parent="1" source="faLAyq8RchsOXLLk2-nm-1" target="faLAyq8RchsOXLLk2-nm-3">
          <mxGeometry width="50" height="50" relative="1" as="geometry">
            <mxPoint x="-280" y="740" as="sourcePoint" />
            <mxPoint x="-230" y="690" as="targetPoint" />
          </mxGeometry>
        </mxCell>
        <mxCell id="91C4lWl_H25pQQBfCAl7-13" value="" style="endArrow=classic;html=1;rounded=0;exitX=0.5;exitY=1;exitDx=0;exitDy=0;entryX=0.5;entryY=0;entryDx=0;entryDy=0;" edge="1" parent="1" source="faLAyq8RchsOXLLk2-nm-14" target="faLAyq8RchsOXLLk2-nm-8">
          <mxGeometry width="50" height="50" relative="1" as="geometry">
            <mxPoint x="-240" y="960" as="sourcePoint" />
            <mxPoint x="-190" y="910" as="targetPoint" />
          </mxGeometry>
        </mxCell>
        <mxCell id="91C4lWl_H25pQQBfCAl7-15" value="" style="endArrow=classic;html=1;rounded=0;exitX=0;exitY=0.5;exitDx=0;exitDy=0;entryX=0.5;entryY=0;entryDx=0;entryDy=0;" edge="1" parent="1" source="faLAyq8RchsOXLLk2-nm-8" target="faLAyq8RchsOXLLk2-nm-10">
          <mxGeometry width="50" height="50" relative="1" as="geometry">
            <mxPoint x="-280" y="970" as="sourcePoint" />
            <mxPoint x="-230" y="920" as="targetPoint" />
            <Array as="points">
              <mxPoint x="180" y="905" />
            </Array>
          </mxGeometry>
        </mxCell>
        <mxCell id="91C4lWl_H25pQQBfCAl7-16" value="" style="endArrow=classic;html=1;rounded=0;exitX=1;exitY=0.5;exitDx=0;exitDy=0;entryX=0.5;entryY=0;entryDx=0;entryDy=0;" edge="1" parent="1" source="faLAyq8RchsOXLLk2-nm-8" target="faLAyq8RchsOXLLk2-nm-20">
          <mxGeometry width="50" height="50" relative="1" as="geometry">
            <mxPoint x="-250" y="960" as="sourcePoint" />
            <mxPoint x="-200" y="910" as="targetPoint" />
            <Array as="points">
              <mxPoint x="340" y="905" />
            </Array>
          </mxGeometry>
        </mxCell>
        <mxCell id="91C4lWl_H25pQQBfCAl7-17" value="" style="endArrow=classic;html=1;rounded=0;exitX=0.5;exitY=1;exitDx=0;exitDy=0;entryX=1;entryY=0.5;entryDx=0;entryDy=0;" edge="1" parent="1" source="faLAyq8RchsOXLLk2-nm-10" target="faLAyq8RchsOXLLk2-nm-3">
          <mxGeometry width="50" height="50" relative="1" as="geometry">
            <mxPoint x="-300" y="980" as="sourcePoint" />
            <mxPoint x="-250" y="930" as="targetPoint" />
            <Array as="points">
              <mxPoint x="180" y="1070" />
              <mxPoint x="440" y="1070" />
              <mxPoint x="440" y="665" />
            </Array>
          </mxGeometry>
        </mxCell>
        <mxCell id="91C4lWl_H25pQQBfCAl7-18" value="Display the system&#39;s main page" style="rounded=1;whiteSpace=wrap;html=1;" vertex="1" parent="1">
          <mxGeometry x="-90" y="1020" width="120" height="40" as="geometry" />
        </mxCell>
        <mxCell id="91C4lWl_H25pQQBfCAl7-19" value="" style="endArrow=classic;html=1;rounded=0;exitX=0.5;exitY=1;exitDx=0;exitDy=0;entryX=1;entryY=0.5;entryDx=0;entryDy=0;" edge="1" parent="1" source="faLAyq8RchsOXLLk2-nm-20" target="91C4lWl_H25pQQBfCAl7-18">
          <mxGeometry width="50" height="50" relative="1" as="geometry">
            <mxPoint x="-250" y="910" as="sourcePoint" />
            <mxPoint x="-200" y="860" as="targetPoint" />
            <Array as="points">
              <mxPoint x="340" y="1040" />
            </Array>
          </mxGeometry>
        </mxCell>
        <mxCell id="8f_OY6Pfrn_0bnqq4KN9-2" value="" style="endArrow=classic;html=1;rounded=0;exitX=0;exitY=0.5;exitDx=0;exitDy=0;entryX=1;entryY=0.5;entryDx=0;entryDy=0;" edge="1" parent="1" source="91C4lWl_H25pQQBfCAl7-18" target="faLAyq8RchsOXLLk2-nm-23">
          <mxGeometry width="50" height="50" relative="1" as="geometry">
            <mxPoint x="-250" y="1080" as="sourcePoint" />
            <mxPoint x="-200" y="1030" as="targetPoint" />
          </mxGeometry>
        </mxCell>
      </root>
    </mxGraphModel>
  </diagram>
  <diagram id="ktSUP5GL8hQWT6dvO-Gz" name="Create account">
    <mxGraphModel dx="1877" dy="522" grid="1" gridSize="10" guides="1" tooltips="1" connect="1" arrows="1" fold="1" page="1" pageScale="1" pageWidth="827" pageHeight="1169" math="0" shadow="0">
      <root>
        <mxCell id="0" />
        <mxCell id="1" parent="0" />
        <mxCell id="rdYVjEGzX4dD0SWpyQul-1" value="" style="rounded=0;whiteSpace=wrap;html=1;" vertex="1" parent="1">
          <mxGeometry x="-160" y="520" width="670" height="410" as="geometry" />
        </mxCell>
        <mxCell id="DD11UUSDUqlgkKSa4ftx-1" value="" style="ellipse;html=1;shape=startState;fillColor=#000000;strokeColor=#ff0000;" vertex="1" parent="1">
          <mxGeometry x="-155" y="630" width="30" height="30" as="geometry" />
        </mxCell>
        <mxCell id="eppoh0VBkxuUR_njdJNv-1" value="Show user account creation form" style="rounded=1;whiteSpace=wrap;html=1;" vertex="1" parent="1">
          <mxGeometry x="-110" y="625" width="120" height="40" as="geometry" />
        </mxCell>
        <mxCell id="eppoh0VBkxuUR_njdJNv-2" value="" style="endArrow=classic;html=1;rounded=0;exitX=1;exitY=0.5;exitDx=0;exitDy=0;entryX=0;entryY=0.5;entryDx=0;entryDy=0;" edge="1" parent="1" source="DD11UUSDUqlgkKSa4ftx-1" target="eppoh0VBkxuUR_njdJNv-1">
          <mxGeometry width="50" height="50" relative="1" as="geometry">
            <mxPoint x="120" y="300" as="sourcePoint" />
            <mxPoint x="170" y="250" as="targetPoint" />
          </mxGeometry>
        </mxCell>
        <mxCell id="eppoh0VBkxuUR_njdJNv-4" value="Enter user information" style="rounded=1;whiteSpace=wrap;html=1;" vertex="1" parent="1">
          <mxGeometry x="50" y="625" width="120" height="40" as="geometry" />
        </mxCell>
        <mxCell id="zKBL74If3hKGbuhStoIm-1" value="Check user information" style="rounded=1;whiteSpace=wrap;html=1;" vertex="1" parent="1">
          <mxGeometry x="270" y="625" width="120" height="40" as="geometry" />
        </mxCell>
        <mxCell id="hc8jIt1Dr2CnLTiHwQ0S-1" value="" style="rhombus;whiteSpace=wrap;html=1;" vertex="1" parent="1">
          <mxGeometry x="315" y="710" width="30" height="30" as="geometry" />
        </mxCell>
        <mxCell id="4bm6i32f4q3J46-NQzOX-1" value="Display error message" style="rounded=1;whiteSpace=wrap;html=1;" vertex="1" parent="1">
          <mxGeometry x="180" y="780" width="120" height="40" as="geometry" />
        </mxCell>
        <mxCell id="LFW85uM-67sJskx6IUP2-1" value="false" style="text;html=1;align=center;verticalAlign=middle;resizable=0;points=[];autosize=1;strokeColor=none;fillColor=none;" vertex="1" parent="1">
          <mxGeometry x="240" y="695" width="50" height="30" as="geometry" />
        </mxCell>
        <mxCell id="cqe3BDIWpYmuv4R5N4bM-1" value="true" style="text;html=1;align=center;verticalAlign=middle;resizable=0;points=[];autosize=1;strokeColor=none;fillColor=none;" vertex="1" parent="1">
          <mxGeometry x="365" y="695" width="40" height="30" as="geometry" />
        </mxCell>
        <mxCell id="cqe3BDIWpYmuv4R5N4bM-2" value="Added an account successfully" style="rounded=1;whiteSpace=wrap;html=1;" vertex="1" parent="1">
          <mxGeometry x="360" y="780" width="120" height="40" as="geometry" />
        </mxCell>
        <mxCell id="GYpSxf08NwgbNzza2L2c-1" value="" style="ellipse;html=1;shape=endState;fillColor=#000000;strokeColor=#ff0000;" vertex="1" parent="1">
          <mxGeometry x="405" y="870" width="30" height="30" as="geometry" />
        </mxCell>
        <mxCell id="GYpSxf08NwgbNzza2L2c-2" value="" style="endArrow=classic;html=1;rounded=0;exitX=0.5;exitY=1;exitDx=0;exitDy=0;entryX=0.5;entryY=0;entryDx=0;entryDy=0;" edge="1" parent="1" source="cqe3BDIWpYmuv4R5N4bM-2" target="GYpSxf08NwgbNzza2L2c-1">
          <mxGeometry width="50" height="50" relative="1" as="geometry">
            <mxPoint x="640" y="520" as="sourcePoint" />
            <mxPoint x="690" y="470" as="targetPoint" />
          </mxGeometry>
        </mxCell>
        <mxCell id="pogb35b8Fh0lcc8NxGm4-1" value="&lt;font style=&quot;font-size: 16px;&quot;&gt;[password field is required]&lt;/font&gt;" style="text;html=1;align=center;verticalAlign=middle;whiteSpace=wrap;rounded=0;" vertex="1" parent="1">
          <mxGeometry x="-510" y="730" width="200" height="30" as="geometry" />
        </mxCell>
        <mxCell id="pogb35b8Fh0lcc8NxGm4-2" value="&lt;font style=&quot;font-size: 16px;&quot;&gt;[email field is required]&lt;/font&gt;" style="text;html=1;align=center;verticalAlign=middle;whiteSpace=wrap;rounded=0;" vertex="1" parent="1">
          <mxGeometry x="-520" y="700" width="190" height="30" as="geometry" />
        </mxCell>
        <mxCell id="pogb35b8Fh0lcc8NxGm4-3" value="&lt;font style=&quot;font-size: 16px;&quot;&gt;[The email field must be a valid email address]&lt;/font&gt;" style="text;html=1;align=center;verticalAlign=middle;whiteSpace=wrap;rounded=0;" vertex="1" parent="1">
          <mxGeometry x="-520" y="760" width="360" height="30" as="geometry" />
        </mxCell>
        <mxCell id="pogb35b8Fh0lcc8NxGm4-4" value="&lt;font style=&quot;font-size: 16px;&quot;&gt;[The password field must be 6 characters]&lt;/font&gt;" style="text;html=1;align=center;verticalAlign=middle;whiteSpace=wrap;rounded=0;" vertex="1" parent="1">
          <mxGeometry x="-545" y="790" width="380" height="30" as="geometry" />
        </mxCell>
        <mxCell id="pogb35b8Fh0lcc8NxGm4-5" value="&lt;font style=&quot;font-size: 16px;&quot;&gt;[The photo must be in png, jpg,...]&lt;/font&gt;" style="text;html=1;align=center;verticalAlign=middle;whiteSpace=wrap;rounded=0;" vertex="1" parent="1">
          <mxGeometry x="-580" y="820" width="380" height="30" as="geometry" />
        </mxCell>
        <mxCell id="8xSqxTMoj2jatTuvqbs8-1" value="" style="endArrow=none;html=1;rounded=0;exitX=0.001;exitY=0.115;exitDx=0;exitDy=0;exitPerimeter=0;entryX=1.004;entryY=0.155;entryDx=0;entryDy=0;entryPerimeter=0;" edge="1" parent="1" target="rdYVjEGzX4dD0SWpyQul-1">
          <mxGeometry width="50" height="50" relative="1" as="geometry">
            <mxPoint x="-159" y="584" as="sourcePoint" />
            <mxPoint x="406" y="584" as="targetPoint" />
          </mxGeometry>
        </mxCell>
        <mxCell id="9OXbpl-Hx75PRS4U_bN8-1" value="" style="endArrow=none;html=1;rounded=0;exitX=0.5;exitY=0;exitDx=0;exitDy=0;entryX=0.5;entryY=1;entryDx=0;entryDy=0;" edge="1" parent="1" source="rdYVjEGzX4dD0SWpyQul-1" target="rdYVjEGzX4dD0SWpyQul-1">
          <mxGeometry width="50" height="50" relative="1" as="geometry">
            <mxPoint x="120" y="520" as="sourcePoint" />
            <mxPoint x="120" y="1080" as="targetPoint" />
          </mxGeometry>
        </mxCell>
        <mxCell id="hWwLsogVLqMMxAGUr3qf-1" value="&lt;font style=&quot;font-size: 15px;&quot;&gt;Admin&lt;/font&gt;" style="text;html=1;align=center;verticalAlign=middle;whiteSpace=wrap;rounded=0;" vertex="1" parent="1">
          <mxGeometry x="-30" y="550" width="60" height="30" as="geometry" />
        </mxCell>
        <mxCell id="q4hM-VcPUv2v5gs9YFj2-1" value="&lt;span style=&quot;font-size: 15px;&quot;&gt;System&lt;/span&gt;" style="text;html=1;align=center;verticalAlign=middle;whiteSpace=wrap;rounded=0;" vertex="1" parent="1">
          <mxGeometry x="300" y="550" width="60" height="30" as="geometry" />
        </mxCell>
        <mxCell id="4cay2nee-sxyDbdDLanF-1" value="" style="endArrow=classic;html=1;rounded=0;exitX=1;exitY=0.5;exitDx=0;exitDy=0;entryX=0;entryY=0.5;entryDx=0;entryDy=0;" edge="1" parent="1" source="eppoh0VBkxuUR_njdJNv-1" target="eppoh0VBkxuUR_njdJNv-4">
          <mxGeometry width="50" height="50" relative="1" as="geometry">
            <mxPoint x="-230" y="600" as="sourcePoint" />
            <mxPoint x="-180" y="550" as="targetPoint" />
          </mxGeometry>
        </mxCell>
        <mxCell id="4cay2nee-sxyDbdDLanF-2" value="" style="endArrow=classic;html=1;rounded=0;exitX=1;exitY=0.5;exitDx=0;exitDy=0;entryX=0;entryY=0.5;entryDx=0;entryDy=0;" edge="1" parent="1" source="eppoh0VBkxuUR_njdJNv-4" target="zKBL74If3hKGbuhStoIm-1">
          <mxGeometry width="50" height="50" relative="1" as="geometry">
            <mxPoint x="-60" y="510" as="sourcePoint" />
            <mxPoint x="-10" y="460" as="targetPoint" />
          </mxGeometry>
        </mxCell>
        <mxCell id="4cay2nee-sxyDbdDLanF-5" value="" style="endArrow=classic;html=1;rounded=0;exitX=0.5;exitY=1;exitDx=0;exitDy=0;entryX=0.5;entryY=0;entryDx=0;entryDy=0;" edge="1" parent="1" source="zKBL74If3hKGbuhStoIm-1" target="hc8jIt1Dr2CnLTiHwQ0S-1">
          <mxGeometry width="50" height="50" relative="1" as="geometry">
            <mxPoint x="170" y="430" as="sourcePoint" />
            <mxPoint x="220" y="380" as="targetPoint" />
          </mxGeometry>
        </mxCell>
        <mxCell id="4cay2nee-sxyDbdDLanF-6" value="" style="endArrow=classic;html=1;rounded=0;exitX=0;exitY=0.5;exitDx=0;exitDy=0;entryX=0.5;entryY=0;entryDx=0;entryDy=0;" edge="1" parent="1" source="hc8jIt1Dr2CnLTiHwQ0S-1" target="4bm6i32f4q3J46-NQzOX-1">
          <mxGeometry width="50" height="50" relative="1" as="geometry">
            <mxPoint x="320" y="420" as="sourcePoint" />
            <mxPoint x="370" y="370" as="targetPoint" />
            <Array as="points">
              <mxPoint x="240" y="725" />
            </Array>
          </mxGeometry>
        </mxCell>
        <mxCell id="4cay2nee-sxyDbdDLanF-7" value="" style="endArrow=classic;html=1;rounded=0;exitX=1;exitY=0.5;exitDx=0;exitDy=0;entryX=0.5;entryY=0;entryDx=0;entryDy=0;" edge="1" parent="1" source="hc8jIt1Dr2CnLTiHwQ0S-1" target="cqe3BDIWpYmuv4R5N4bM-2">
          <mxGeometry width="50" height="50" relative="1" as="geometry">
            <mxPoint x="320" y="440" as="sourcePoint" />
            <mxPoint x="370" y="390" as="targetPoint" />
            <Array as="points">
              <mxPoint x="420" y="725" />
            </Array>
          </mxGeometry>
        </mxCell>
        <mxCell id="4cay2nee-sxyDbdDLanF-9" value="" style="endArrow=classic;html=1;rounded=0;exitX=0;exitY=0.5;exitDx=0;exitDy=0;entryX=0.5;entryY=1;entryDx=0;entryDy=0;" edge="1" parent="1" source="4bm6i32f4q3J46-NQzOX-1" target="eppoh0VBkxuUR_njdJNv-4">
          <mxGeometry width="50" height="50" relative="1" as="geometry">
            <mxPoint x="-230" y="800" as="sourcePoint" />
            <mxPoint x="-180" y="750" as="targetPoint" />
            <Array as="points">
              <mxPoint x="110" y="800" />
            </Array>
          </mxGeometry>
        </mxCell>
      </root>
    </mxGraphModel>
  </diagram>
  <diagram id="qTqgnBL-zQeAboDGzxh5" name="Submit contribution">
    <mxGraphModel dx="1877" dy="522" grid="1" gridSize="10" guides="1" tooltips="1" connect="1" arrows="1" fold="1" page="1" pageScale="1" pageWidth="827" pageHeight="1169" math="0" shadow="0">
      <root>
        <mxCell id="0" />
        <mxCell id="1" parent="0" />
        <mxCell id="vRTBUGmB1m9TvI2H4Lrv-1" value="" style="rounded=0;whiteSpace=wrap;html=1;" vertex="1" parent="1">
          <mxGeometry x="-180" y="520" width="690" height="410" as="geometry" />
        </mxCell>
        <mxCell id="6rjoMHl_o2NXL6JcAQLd-1" value="" style="ellipse;html=1;shape=startState;fillColor=#000000;strokeColor=#ff0000;" vertex="1" parent="1">
          <mxGeometry x="-170" y="620" width="30" height="30" as="geometry" />
        </mxCell>
        <mxCell id="Qgc-n8U9e_-8JQgS42uP-1" value="Display contribution submission form" style="rounded=1;whiteSpace=wrap;html=1;" vertex="1" parent="1">
          <mxGeometry x="-120" y="615" width="120" height="40" as="geometry" />
        </mxCell>
        <mxCell id="Qgc-n8U9e_-8JQgS42uP-3" value="Enter contribution information" style="rounded=1;whiteSpace=wrap;html=1;" vertex="1" parent="1">
          <mxGeometry x="-120" y="680" width="120" height="40" as="geometry" />
        </mxCell>
        <mxCell id="pc-qj05yQrri6fx0lCQ7-1" value="" style="endArrow=none;html=1;rounded=0;exitX=-0.008;exitY=0.155;exitDx=0;exitDy=0;exitPerimeter=0;entryX=1.004;entryY=0.155;entryDx=0;entryDy=0;entryPerimeter=0;" edge="1" parent="1" source="vRTBUGmB1m9TvI2H4Lrv-1">
          <mxGeometry width="50" height="50" relative="1" as="geometry">
            <mxPoint x="-159" y="584" as="sourcePoint" />
            <mxPoint x="513" y="584" as="targetPoint" />
          </mxGeometry>
        </mxCell>
        <mxCell id="q-sC-kxpWc6vtKak0Wme-1" value="" style="endArrow=none;html=1;rounded=0;exitX=0.5;exitY=0;exitDx=0;exitDy=0;entryX=0.5;entryY=1;entryDx=0;entryDy=0;" edge="1" parent="1">
          <mxGeometry width="50" height="50" relative="1" as="geometry">
            <mxPoint x="175" y="520" as="sourcePoint" />
            <mxPoint x="175" y="930" as="targetPoint" />
          </mxGeometry>
        </mxCell>
        <mxCell id="-72nM-UbmAAGnO1Yn3NR-1" value="&lt;font style=&quot;font-size: 15px;&quot;&gt;Student&lt;/font&gt;" style="text;html=1;align=center;verticalAlign=middle;whiteSpace=wrap;rounded=0;" vertex="1" parent="1">
          <mxGeometry x="-30" y="550" width="60" height="30" as="geometry" />
        </mxCell>
        <mxCell id="YVilP0g2YCqnj6TyGRRe-1" value="&lt;span style=&quot;font-size: 15px;&quot;&gt;System&lt;/span&gt;" style="text;html=1;align=center;verticalAlign=middle;whiteSpace=wrap;rounded=0;" vertex="1" parent="1">
          <mxGeometry x="300" y="550" width="60" height="30" as="geometry" />
        </mxCell>
        <mxCell id="__HLpWQucSmjU27Hqqle-1" value="Check contribution information" style="rounded=1;whiteSpace=wrap;html=1;" vertex="1" parent="1">
          <mxGeometry x="270" y="680" width="120" height="40" as="geometry" />
        </mxCell>
        <mxCell id="__HLpWQucSmjU27Hqqle-2" value="" style="endArrow=classic;html=1;rounded=0;exitX=1;exitY=0.5;exitDx=0;exitDy=0;entryX=0;entryY=0.5;entryDx=0;entryDy=0;" edge="1" parent="1" source="6rjoMHl_o2NXL6JcAQLd-1" target="Qgc-n8U9e_-8JQgS42uP-1">
          <mxGeometry width="50" height="50" relative="1" as="geometry">
            <mxPoint x="-280" y="720" as="sourcePoint" />
            <mxPoint x="-230" y="670" as="targetPoint" />
          </mxGeometry>
        </mxCell>
        <mxCell id="__HLpWQucSmjU27Hqqle-3" value="" style="endArrow=classic;html=1;rounded=0;exitX=0.5;exitY=1;exitDx=0;exitDy=0;entryX=0.5;entryY=0;entryDx=0;entryDy=0;" edge="1" parent="1" source="Qgc-n8U9e_-8JQgS42uP-1" target="Qgc-n8U9e_-8JQgS42uP-3">
          <mxGeometry width="50" height="50" relative="1" as="geometry">
            <mxPoint x="-240" y="710" as="sourcePoint" />
            <mxPoint x="-190" y="660" as="targetPoint" />
          </mxGeometry>
        </mxCell>
        <mxCell id="__HLpWQucSmjU27Hqqle-4" value="" style="endArrow=classic;html=1;rounded=0;exitX=1;exitY=0.5;exitDx=0;exitDy=0;entryX=0;entryY=0.5;entryDx=0;entryDy=0;" edge="1" parent="1" source="Qgc-n8U9e_-8JQgS42uP-3" target="fQrTRai_w8q86BAaNnXt-4">
          <mxGeometry width="50" height="50" relative="1" as="geometry">
            <mxPoint x="-280" y="740" as="sourcePoint" />
            <mxPoint x="-230" y="690" as="targetPoint" />
          </mxGeometry>
        </mxCell>
        <mxCell id="T-Py0goJVH8GPQ2AA2n5-1" value="" style="rhombus;whiteSpace=wrap;html=1;" vertex="1" parent="1">
          <mxGeometry x="315" y="750" width="30" height="30" as="geometry" />
        </mxCell>
        <mxCell id="12FwtunexMe9fuIGNWgu-1" value="Display error message" style="rounded=1;whiteSpace=wrap;html=1;" vertex="1" parent="1">
          <mxGeometry x="180" y="820" width="120" height="40" as="geometry" />
        </mxCell>
        <mxCell id="n2mZwMyKXB_DvWnyWu98-1" value="" style="endArrow=classic;html=1;rounded=0;exitX=0;exitY=0.5;exitDx=0;exitDy=0;entryX=0.5;entryY=0;entryDx=0;entryDy=0;" edge="1" parent="1" source="T-Py0goJVH8GPQ2AA2n5-1" target="12FwtunexMe9fuIGNWgu-1">
          <mxGeometry width="50" height="50" relative="1" as="geometry">
            <mxPoint x="315" y="725" as="sourcePoint" />
            <mxPoint x="240" y="780" as="targetPoint" />
            <Array as="points">
              <mxPoint x="240" y="765" />
            </Array>
          </mxGeometry>
        </mxCell>
        <mxCell id="PkqraszVZCbn9XqcOBgG-1" value="" style="endArrow=classic;html=1;rounded=0;exitX=1;exitY=0.5;exitDx=0;exitDy=0;entryX=0.5;entryY=0;entryDx=0;entryDy=0;" edge="1" parent="1" source="T-Py0goJVH8GPQ2AA2n5-1" target="Uo2KZ3GaVvRz5yTIVkHc-1">
          <mxGeometry width="50" height="50" relative="1" as="geometry">
            <mxPoint x="345" y="725" as="sourcePoint" />
            <mxPoint x="420" y="780" as="targetPoint" />
            <Array as="points">
              <mxPoint x="420" y="765" />
            </Array>
          </mxGeometry>
        </mxCell>
        <mxCell id="ku4_rIHuwL4RKm2e2qWK-1" value="false" style="text;html=1;align=center;verticalAlign=middle;resizable=0;points=[];autosize=1;strokeColor=none;fillColor=none;" vertex="1" parent="1">
          <mxGeometry x="250" y="730" width="50" height="30" as="geometry" />
        </mxCell>
        <mxCell id="TdRKaiPwl0YrB477snIi-1" value="true" style="text;html=1;align=center;verticalAlign=middle;resizable=0;points=[];autosize=1;strokeColor=none;fillColor=none;" vertex="1" parent="1">
          <mxGeometry x="365" y="730" width="40" height="30" as="geometry" />
        </mxCell>
        <mxCell id="TKbj36PqlNbDQDE2R8qR-1" value="" style="endArrow=classic;html=1;rounded=0;exitX=0.5;exitY=1;exitDx=0;exitDy=0;entryX=0.5;entryY=0;entryDx=0;entryDy=0;" edge="1" parent="1" source="Uo2KZ3GaVvRz5yTIVkHc-1" target="aYNAnaQnj4WSK2XO404m-1">
          <mxGeometry width="50" height="50" relative="1" as="geometry">
            <mxPoint x="420" y="820" as="sourcePoint" />
            <mxPoint x="420" y="870" as="targetPoint" />
          </mxGeometry>
        </mxCell>
        <mxCell id="aYNAnaQnj4WSK2XO404m-1" value="" style="ellipse;html=1;shape=endState;fillColor=#000000;strokeColor=#ff0000;" vertex="1" parent="1">
          <mxGeometry x="405" y="900" width="30" height="30" as="geometry" />
        </mxCell>
        <mxCell id="fQrTRai_w8q86BAaNnXt-1" value="&lt;font style=&quot;font-size: 16px;&quot;&gt;[topic field is required]&lt;/font&gt;" style="text;html=1;align=center;verticalAlign=middle;whiteSpace=wrap;rounded=0;" vertex="1" parent="1">
          <mxGeometry x="530" y="665" width="190" height="30" as="geometry" />
        </mxCell>
        <mxCell id="fQrTRai_w8q86BAaNnXt-2" value="&lt;font style=&quot;font-size: 16px;&quot;&gt;[tag field is required]&lt;/font&gt;" style="text;html=1;align=center;verticalAlign=middle;whiteSpace=wrap;rounded=0;" vertex="1" parent="1">
          <mxGeometry x="530" y="710" width="190" height="30" as="geometry" />
        </mxCell>
        <mxCell id="fQrTRai_w8q86BAaNnXt-3" value="&lt;font style=&quot;font-size: 16px;&quot;&gt;[The file format needs to be docx, image]&lt;/font&gt;" style="text;html=1;align=center;verticalAlign=middle;whiteSpace=wrap;rounded=0;" vertex="1" parent="1">
          <mxGeometry x="530" y="750" width="320" height="30" as="geometry" />
        </mxCell>
        <mxCell id="fQrTRai_w8q86BAaNnXt-4" value="Accept Term of Conditions" style="rounded=1;whiteSpace=wrap;html=1;" vertex="1" parent="1">
          <mxGeometry x="40" y="680" width="120" height="40" as="geometry" />
        </mxCell>
        <mxCell id="Uo2KZ3GaVvRz5yTIVkHc-1" value="Added a contribution successfully" style="rounded=1;whiteSpace=wrap;html=1;" vertex="1" parent="1">
          <mxGeometry x="360" y="820" width="120" height="40" as="geometry" />
        </mxCell>
        <mxCell id="fQrTRai_w8q86BAaNnXt-9" value="" style="endArrow=classic;html=1;rounded=0;exitX=0.5;exitY=1;exitDx=0;exitDy=0;entryX=0.5;entryY=0;entryDx=0;entryDy=0;" edge="1" parent="1" source="__HLpWQucSmjU27Hqqle-1" target="T-Py0goJVH8GPQ2AA2n5-1">
          <mxGeometry width="50" height="50" relative="1" as="geometry">
            <mxPoint x="-240" y="820" as="sourcePoint" />
            <mxPoint x="-190" y="770" as="targetPoint" />
          </mxGeometry>
        </mxCell>
        <mxCell id="fQrTRai_w8q86BAaNnXt-10" value="&lt;span style=&quot;color: rgb(0, 0, 0); font-family: Helvetica; font-size: 16px; font-style: normal; font-variant-ligatures: normal; font-variant-caps: normal; font-weight: 400; letter-spacing: normal; orphans: 2; text-align: center; text-indent: 0px; text-transform: none; widows: 2; word-spacing: 0px; -webkit-text-stroke-width: 0px; white-space: normal; background-color: rgb(251, 251, 251); text-decoration-thickness: initial; text-decoration-style: initial; text-decoration-color: initial; display: inline !important; float: none;&quot;&gt;[Term of Condition is required]&lt;/span&gt;" style="text;whiteSpace=wrap;html=1;" vertex="1" parent="1">
          <mxGeometry x="540" y="790" width="300" height="40" as="geometry" />
        </mxCell>
        <mxCell id="fQrTRai_w8q86BAaNnXt-11" value="" style="rhombus;whiteSpace=wrap;html=1;" vertex="1" parent="1">
          <mxGeometry x="85" y="750" width="30" height="30" as="geometry" />
        </mxCell>
        <mxCell id="fQrTRai_w8q86BAaNnXt-12" value="" style="endArrow=classic;html=1;rounded=0;exitX=0.5;exitY=1;exitDx=0;exitDy=0;entryX=0.5;entryY=0;entryDx=0;entryDy=0;" edge="1" parent="1" source="fQrTRai_w8q86BAaNnXt-4" target="fQrTRai_w8q86BAaNnXt-11">
          <mxGeometry width="50" height="50" relative="1" as="geometry">
            <mxPoint y="980" as="sourcePoint" />
            <mxPoint x="50" y="930" as="targetPoint" />
          </mxGeometry>
        </mxCell>
        <mxCell id="fQrTRai_w8q86BAaNnXt-13" value="" style="endArrow=classic;html=1;rounded=0;exitX=0;exitY=0.5;exitDx=0;exitDy=0;entryX=0.5;entryY=0;entryDx=0;entryDy=0;" edge="1" parent="1" source="fQrTRai_w8q86BAaNnXt-11" target="fQrTRai_w8q86BAaNnXt-14">
          <mxGeometry width="50" height="50" relative="1" as="geometry">
            <mxPoint x="680" y="950" as="sourcePoint" />
            <mxPoint x="730" y="900" as="targetPoint" />
            <Array as="points">
              <mxPoint x="-10" y="765" />
            </Array>
          </mxGeometry>
        </mxCell>
        <mxCell id="fQrTRai_w8q86BAaNnXt-14" value="Display error message" style="rounded=1;whiteSpace=wrap;html=1;" vertex="1" parent="1">
          <mxGeometry x="-70" y="810" width="120" height="40" as="geometry" />
        </mxCell>
        <mxCell id="fQrTRai_w8q86BAaNnXt-16" value="false" style="text;html=1;align=center;verticalAlign=middle;resizable=0;points=[];autosize=1;strokeColor=none;fillColor=none;" vertex="1" parent="1">
          <mxGeometry x="10" y="740" width="50" height="30" as="geometry" />
        </mxCell>
        <mxCell id="fQrTRai_w8q86BAaNnXt-17" value="" style="endArrow=classic;html=1;rounded=0;exitX=0;exitY=0.5;exitDx=0;exitDy=0;entryX=0;entryY=0.5;entryDx=0;entryDy=0;" edge="1" parent="1" source="fQrTRai_w8q86BAaNnXt-14" target="Qgc-n8U9e_-8JQgS42uP-3">
          <mxGeometry width="50" height="50" relative="1" as="geometry">
            <mxPoint x="-30" y="1030" as="sourcePoint" />
            <mxPoint x="20" y="980" as="targetPoint" />
            <Array as="points">
              <mxPoint x="-170" y="830" />
              <mxPoint x="-170" y="700" />
            </Array>
          </mxGeometry>
        </mxCell>
        <mxCell id="fQrTRai_w8q86BAaNnXt-18" value="" style="endArrow=classic;html=1;rounded=0;entryX=0;entryY=0.5;entryDx=0;entryDy=0;exitX=1;exitY=0.5;exitDx=0;exitDy=0;" edge="1" parent="1" source="fQrTRai_w8q86BAaNnXt-11" target="__HLpWQucSmjU27Hqqle-1">
          <mxGeometry width="50" height="50" relative="1" as="geometry">
            <mxPoint x="120" y="760" as="sourcePoint" />
            <mxPoint x="200" y="940" as="targetPoint" />
            <Array as="points">
              <mxPoint x="200" y="765" />
              <mxPoint x="200" y="700" />
            </Array>
          </mxGeometry>
        </mxCell>
        <mxCell id="fQrTRai_w8q86BAaNnXt-19" value="true" style="text;html=1;align=center;verticalAlign=middle;resizable=0;points=[];autosize=1;strokeColor=none;fillColor=none;" vertex="1" parent="1">
          <mxGeometry x="120" y="730" width="40" height="30" as="geometry" />
        </mxCell>
        <mxCell id="fQrTRai_w8q86BAaNnXt-23" value="" style="endArrow=none;html=1;rounded=0;exitX=0.5;exitY=1;exitDx=0;exitDy=0;" edge="1" parent="1" source="12FwtunexMe9fuIGNWgu-1">
          <mxGeometry width="50" height="50" relative="1" as="geometry">
            <mxPoint x="60" y="1050" as="sourcePoint" />
            <mxPoint x="-170" y="830" as="targetPoint" />
            <Array as="points">
              <mxPoint x="240" y="890" />
              <mxPoint x="-170" y="890" />
            </Array>
          </mxGeometry>
        </mxCell>
      </root>
    </mxGraphModel>
  </diagram>
</mxfile>
